<svg width="350" height="154" viewBox="0 0 350 154" fill="none" xmlns="http://www.w3.org/2000/svg">
<g clip-path="url(#clip0_1_23)">
<rect width="350" height="154" fill="white"/>
<g clip-path="url(#clip1_1_23)">
<path d="M266.5 53.25C266.5 48.9633 263.037 45.5 258.75 45.5L235.5 45.5L235.5 61L258.75 61C263.037 61 266.5 57.5367 266.5 53.25ZM266.5 99.75C266.5 95.4633 263.037 92 258.75 92L235.5 92L235.5 107.5L258.75 107.5C263.037 107.5 266.5 104.037 266.5 99.75ZM227.75 37.75C227.75 33.4633 224.287 30 220 30C215.713 30 212.25 33.4633 212.25 37.75L204.5 37.75C185.755 37.75 170.109 51.0703 166.525 68.75L150.25 68.75C145.963 68.75 142.5 72.2133 142.5 76.5C142.5 80.7867 145.963 84.25 150.25 84.25L166.525 84.25C170.109 101.93 185.755 115.25 204.5 115.25L212.25 115.25C212.25 119.537 215.713 123 220 123C224.287 123 227.75 119.537 227.75 115.25L227.75 37.75Z" fill="black"/>
</g>
<path d="M153 75.9999C145.5 75.9999 125 75.9999 103 75.9999C83 75.9999 87 97 72.5 97C50 97 57.1638 72 38 72C21.5 72 29 105 4 100.5" stroke="black" stroke-width="10" stroke-linecap="round"/>
</g>
<defs>
<clipPath id="clip0_1_23">
<rect width="350" height="154" fill="white"/>
</clipPath>
<clipPath id="clip1_1_23">
<rect width="93" height="124" fill="white" transform="translate(266.5 30) rotate(90)"/>
</clipPath>
</defs>
</svg>
