<svg width="350" height="154" viewBox="0 0 350 154" fill="none" xmlns="http://www.w3.org/2000/svg">
<g clip-path="url(#clip0_1_28)">
<rect width="350" height="154" fill="white"/>
<g clip-path="url(#clip1_1_28)">
<path d="M340.5 53.25C340.5 48.9633 337.037 45.5 332.75 45.5L309.5 45.5L309.5 61L332.75 61C337.037 61 340.5 57.5367 340.5 53.25ZM340.5 99.75C340.5 95.4633 337.037 92 332.75 92L309.5 92L309.5 107.5L332.75 107.5C337.037 107.5 340.5 104.037 340.5 99.75ZM301.75 37.75C301.75 33.4633 298.287 30 294 30C289.713 30 286.25 33.4633 286.25 37.75L278.5 37.75C259.755 37.75 244.109 51.0703 240.525 68.75L224.25 68.75C219.963 68.75 216.5 72.2133 216.5 76.5C216.5 80.7867 219.963 84.25 224.25 84.25L240.525 84.25C244.109 101.93 259.755 115.25 278.5 115.25L286.25 115.25C286.25 119.537 289.713 123 294 123C298.287 123 301.75 119.537 301.75 115.25L301.75 37.75Z" fill="black"/>
</g>
<path d="M222 75.9999C214.5 75.9999 125 75.9999 103 75.9999C83 75.9999 87 97 72.5 97C50 97 57.1638 72 38 72C21.5 72 29 105 4 100.5" stroke="black" stroke-width="10" stroke-linecap="round"/>
</g>
<defs>
<clipPath id="clip0_1_28">
<rect width="350" height="154" fill="white"/>
</clipPath>
<clipPath id="clip1_1_28">
<rect width="93" height="124" fill="white" transform="translate(340.5 30) rotate(90)"/>
</clipPath>
</defs>
</svg>
